HIERARCHY
ROOT Hips
{
	OFFSET -341.196167 -577.024780 88.986252
	CHANNELS 6 Xposition Yposition Zposition Zrotation Yrotation Xrotation
	JOINT Spine
	{
		OFFSET 0.000000 2.080078 8.814247
		CHANNELS 6 Xposition Yposition Zposition Zrotation Yrotation Xrotation
		JOINT Spine1
		{
			OFFSET 0.000000 0.000000 8.844139
			CHANNELS 6 Xposition Yposition Zposition Zrotation Yrotation Xrotation
			JOINT Spine2
			{
				OFFSET 0.000000 0.000000 11.682266
				CHANNELS 6 Xposition Yposition Zposition Zrotation Yrotation Xrotation
				JOINT Spine3
				{
					OFFSET 0.000000 0.000000 11.746704
					CHANNELS 6 Xposition Yposition Zposition Zrotation Yrotation Xrotation
					JOINT Neck
					{
						OFFSET 0.000000 0.000000 17.658264
						CHANNELS 6 Xposition Yposition Zposition Zrotation Yrotation Xrotation
						JOINT Neck1
						{
							OFFSET 0.000000 0.000000 5.101517
							CHANNELS 6 Xposition Yposition Zposition Zrotation Yrotation Xrotation
							JOINT Head
							{
								OFFSET 0.000000 0.000000 5.101517
								CHANNELS 6 Xposition Yposition Zposition Zrotation Yrotation Xrotation
								JOINT HeadEnd
								{
									OFFSET 0.000000 0.000000 11.655090
									CHANNELS 6 Xposition Yposition Zposition Zrotation Yrotation Xrotation
									End Site
									{
										OFFSET 0.000000 0.000000 0.100006
									}
								}
							}
						}
					}
					JOINT RightShoulder
					{
						OFFSET -2.625397 0.000000 11.175217
						CHANNELS 6 Xposition Yposition Zposition Zrotation Yrotation Xrotation
						JOINT RightArm
						{
							OFFSET 0.000000 0.000000 10.434723
							CHANNELS 6 Xposition Yposition Zposition Zrotation Yrotation Xrotation
							JOINT RightForeArm
							{
								OFFSET 0.000000 0.000000 29.628418
								CHANNELS 6 Xposition Yposition Zposition Zrotation Yrotation Xrotation
								JOINT RightHand
								{
									OFFSET 0.000000 0.000000 22.857605
									CHANNELS 6 Xposition Yposition Zposition Zrotation Yrotation Xrotation
									JOINT RightHandThumb1
									{
										OFFSET -2.867310 -2.944275 3.959564
										CHANNELS 6 Xposition Yposition Zposition Zrotation Yrotation Xrotation
										JOINT RightHandThumb2
										{
											OFFSET 0.000000 0.000000 3.350403
											CHANNELS 6 Xposition Yposition Zposition Zrotation Yrotation Xrotation
											JOINT RightHandThumb3
											{
												OFFSET 0.000000 0.000000 3.756516
												CHANNELS 6 Xposition Yposition Zposition Zrotation Yrotation Xrotation
												JOINT RightHandThumb4
												{
													OFFSET 0.000000 0.000000 3.147339
													CHANNELS 6 Xposition Yposition Zposition Zrotation Yrotation Xrotation
													End Site
													{
														OFFSET 0.000000 0.000000 0.100006
													}
												}
											}
										}
									}
									JOINT RightHandIndex1
									{
										OFFSET -0.086761 -2.345276 10.030899
										CHANNELS 6 Xposition Yposition Zposition Zrotation Yrotation Xrotation
										JOINT RightHandIndex2
										{
											OFFSET 0.000000 0.000000 4.061096
											CHANNELS 6 Xposition Yposition Zposition Zrotation Yrotation Xrotation
											JOINT RightHandIndex3
											{
												OFFSET 0.000000 0.000000 3.248871
												CHANNELS 6 Xposition Yposition Zposition Zrotation Yrotation Xrotation
												JOINT RightHandIndex4
												{
													OFFSET 0.000000 0.000000 2.639709
													CHANNELS 6 Xposition Yposition Zposition Zrotation Yrotation Xrotation
													End Site
													{
														OFFSET 0.000000 0.000000 0.100006
													}
												}
											}
										}
									}
									JOINT RightHandMiddle1
									{
										OFFSET 0.104095 -0.006775 9.502945
										CHANNELS 6 Xposition Yposition Zposition Zrotation Yrotation Xrotation
										JOINT RightHandMiddle2
										{
											OFFSET 0.000000 0.000000 4.568726
											CHANNELS 6 Xposition Yposition Zposition Zrotation Yrotation Xrotation
											JOINT RightHandMiddle3
											{
												OFFSET 0.000000 0.000000 3.654984
												CHANNELS 6 Xposition Yposition Zposition Zrotation Yrotation Xrotation
												JOINT RightHandMiddle4
												{
													OFFSET 0.000000 0.000000 2.741241
													CHANNELS 6 Xposition Yposition Zposition Zrotation Yrotation Xrotation
													End Site
													{
														OFFSET 0.000000 0.000000 0.100006
													}
												}
											}
										}
									}
									JOINT RightHandRing1
									{
										OFFSET 0.086761 2.267456 8.921707
										CHANNELS 6 Xposition Yposition Zposition Zrotation Yrotation Xrotation
										JOINT RightHandRing2
										{
											OFFSET 0.000000 0.000000 4.061096
											CHANNELS 6 Xposition Yposition Zposition Zrotation Yrotation Xrotation
											JOINT RightHandRing3
											{
												OFFSET 0.000000 0.000000 3.654984
												CHANNELS 6 Xposition Yposition Zposition Zrotation Yrotation Xrotation
												JOINT RightHandRing4
												{
													OFFSET 0.000000 0.000000 2.741241
													CHANNELS 6 Xposition Yposition Zposition Zrotation Yrotation Xrotation
													End Site
													{
														OFFSET 0.000000 0.000000 0.100006
													}
												}
											}
										}
									}
									JOINT RightHandPinky1
									{
										OFFSET -0.173492 4.467224 7.976990
										CHANNELS 6 Xposition Yposition Zposition Zrotation Yrotation Xrotation
										JOINT RightHandPinky2
										{
											OFFSET 0.000000 0.000000 3.350403
											CHANNELS 6 Xposition Yposition Zposition Zrotation Yrotation Xrotation
											JOINT RightHandPinky3
											{
												OFFSET 0.000000 0.000000 2.842758
												CHANNELS 6 Xposition Yposition Zposition Zrotation Yrotation Xrotation
												JOINT RightHandPinky4
												{
													OFFSET 0.000000 0.000000 2.639709
													CHANNELS 6 Xposition Yposition Zposition Zrotation Yrotation Xrotation
													End Site
													{
														OFFSET 0.000000 0.000000 0.100006
													}
												}
											}
										}
									}
									JOINT RightForeArmEnd
									{
										OFFSET 0.000000 0.000000 0.000000
										CHANNELS 6 Xposition Yposition Zposition Zrotation Yrotation Xrotation
										End Site
										{
											OFFSET 0.000000 0.000000 0.100006
										}
									}
								}
								JOINT RightArmEnd
								{
									OFFSET 0.000000 0.000000 0.000000
									CHANNELS 6 Xposition Yposition Zposition Zrotation Yrotation Xrotation
									End Site
									{
										OFFSET 0.000000 0.000000 0.100006
									}
								}
							}
						}
					}
					JOINT LeftShoulder
					{
						OFFSET 2.625397 0.000000 11.175217
						CHANNELS 6 Xposition Yposition Zposition Zrotation Yrotation Xrotation
						JOINT LeftArm
						{
							OFFSET 0.000000 0.000000 10.813629
							CHANNELS 6 Xposition Yposition Zposition Zrotation Yrotation Xrotation
							JOINT LeftForeArm
							{
								OFFSET 0.000000 0.000000 28.724777
								CHANNELS 6 Xposition Yposition Zposition Zrotation Yrotation Xrotation
								JOINT LeftHand
								{
									OFFSET 0.644379 0.328857 25.716171
									CHANNELS 6 Xposition Yposition Zposition Zrotation Yrotation Xrotation
									JOINT LeftHandThumb1
									{
										OFFSET 2.867310 -2.944275 3.959564
										CHANNELS 6 Xposition Yposition Zposition Zrotation Yrotation Xrotation
										JOINT LeftHandThumb2
										{
											OFFSET 0.000000 0.000000 3.350403
											CHANNELS 6 Xposition Yposition Zposition Zrotation Yrotation Xrotation
											JOINT LeftHandThumb3
											{
												OFFSET 0.000000 0.000000 3.756516
												CHANNELS 6 Xposition Yposition Zposition Zrotation Yrotation Xrotation
												JOINT LeftHandThumb4
												{
													OFFSET 0.000000 0.000000 3.100006
													CHANNELS 6 Xposition Yposition Zposition Zrotation Yrotation Xrotation
													End Site
													{
														OFFSET 0.000000 0.000000 0.100006
													}
												}
											}
										}
									}
									JOINT LeftHandIndex1
									{
										OFFSET 0.086761 -2.345276 10.030899
										CHANNELS 6 Xposition Yposition Zposition Zrotation Yrotation Xrotation
										JOINT LeftHandIndex2
										{
											OFFSET 0.000000 0.000000 4.061096
											CHANNELS 6 Xposition Yposition Zposition Zrotation Yrotation Xrotation
											JOINT LeftHandIndex3
											{
												OFFSET 0.000000 0.000000 3.248871
												CHANNELS 6 Xposition Yposition Zposition Zrotation Yrotation Xrotation
												JOINT LeftHandIndex4
												{
													OFFSET 0.000000 0.000000 2.639709
													CHANNELS 6 Xposition Yposition Zposition Zrotation Yrotation Xrotation
													End Site
													{
														OFFSET 0.000000 0.000000 0.100006
													}
												}
											}
										}
									}
									JOINT LeftHandMiddle1
									{
										OFFSET -0.104095 -0.006775 9.502945
										CHANNELS 6 Xposition Yposition Zposition Zrotation Yrotation Xrotation
										JOINT LeftHandMiddle2
										{
											OFFSET 0.000000 0.000000 4.568726
											CHANNELS 6 Xposition Yposition Zposition Zrotation Yrotation Xrotation
											JOINT LeftHandMiddle3
											{
												OFFSET 0.000000 0.000000 3.654984
												CHANNELS 6 Xposition Yposition Zposition Zrotation Yrotation Xrotation
												JOINT LeftHandMiddle4
												{
													OFFSET 0.000000 0.000000 2.741241
													CHANNELS 6 Xposition Yposition Zposition Zrotation Yrotation Xrotation
													End Site
													{
														OFFSET 0.000000 0.000000 0.100006
													}
												}
											}
										}
									}
									JOINT LeftHandRing1
									{
										OFFSET -0.086761 2.267456 8.921707
										CHANNELS 6 Xposition Yposition Zposition Zrotation Yrotation Xrotation
										JOINT LeftHandRing2
										{
											OFFSET 0.000000 0.000000 4.061096
											CHANNELS 6 Xposition Yposition Zposition Zrotation Yrotation Xrotation
											JOINT LeftHandRing3
											{
												OFFSET 0.000000 0.000000 3.654984
												CHANNELS 6 Xposition Yposition Zposition Zrotation Yrotation Xrotation
												JOINT LeftHandRing4
												{
													OFFSET 0.000000 0.000000 2.741241
													CHANNELS 6 Xposition Yposition Zposition Zrotation Yrotation Xrotation
													End Site
													{
														OFFSET 0.000000 0.000000 0.100006
													}
												}
											}
										}
									}
									JOINT LeftHandPinky1
									{
										OFFSET 0.173492 4.467224 7.976990
										CHANNELS 6 Xposition Yposition Zposition Zrotation Yrotation Xrotation
										JOINT LeftHandPinky2
										{
											OFFSET 0.000000 0.000000 3.350403
											CHANNELS 6 Xposition Yposition Zposition Zrotation Yrotation Xrotation
											JOINT LeftHandPinky3
											{
												OFFSET 0.000000 0.000000 2.842758
												CHANNELS 6 Xposition Yposition Zposition Zrotation Yrotation Xrotation
												JOINT LeftHandPinky4
												{
													OFFSET 0.000000 0.000000 2.639709
													CHANNELS 6 Xposition Yposition Zposition Zrotation Yrotation Xrotation
													End Site
													{
														OFFSET 0.000000 0.000000 0.100006
													}
												}
											}
										}
									}
									JOINT LeftForeArmEnd
									{
										OFFSET 0.000000 0.000000 0.000000
										CHANNELS 6 Xposition Yposition Zposition Zrotation Yrotation Xrotation
										End Site
										{
											OFFSET 0.000000 0.000000 0.100006
										}
									}
								}
								JOINT LeftArmEnd
								{
									OFFSET 0.000000 0.000000 0.000000
									CHANNELS 6 Xposition Yposition Zposition Zrotation Yrotation Xrotation
									End Site
									{
										OFFSET 0.000000 0.000000 0.100006
									}
								}
							}
						}
					}
				}
			}
		}
	}
	JOINT RightUpLeg
	{
		OFFSET -11.289948 0.000000 0.000000
		CHANNELS 6 Xposition Yposition Zposition Zrotation Yrotation Xrotation
		JOINT RightLeg
		{
			OFFSET 0.000000 0.000000 -38.200329
			CHANNELS 6 Xposition Yposition Zposition Zrotation Yrotation Xrotation
			JOINT RightFoot
			{
				OFFSET 0.000000 0.000000 -39.900856
				CHANNELS 6 Xposition Yposition Zposition Zrotation Yrotation Xrotation
				JOINT RightToeBase
				{
					OFFSET 0.000000 -15.261658 0.000001
					CHANNELS 6 Xposition Yposition Zposition Zrotation Yrotation Xrotation
					JOINT RightToeBaseEnd
					{
						OFFSET 0.000000 -7.370728 0.000000
						CHANNELS 6 Xposition Yposition Zposition Zrotation Yrotation Xrotation
						End Site
						{
							OFFSET 0.000000 0.000000 0.100000
						}
					}
				}
				JOINT RightLegEnd
				{
					OFFSET 0.000000 0.000000 0.000000
					CHANNELS 6 Xposition Yposition Zposition Zrotation Yrotation Xrotation
					End Site
					{
						OFFSET 0.000000 0.000000 0.100000
					}
				}
			}
			JOINT RightUpLegEnd
			{
				OFFSET 0.000000 0.000000 0.000000
				CHANNELS 6 Xposition Yposition Zposition Zrotation Yrotation Xrotation
				End Site
				{
					OFFSET 0.000000 0.000000 0.099998
				}
			}
		}
	}
	JOINT LeftUpLeg
	{
		OFFSET 11.315674 0.000000 0.000000
		CHANNELS 6 Xposition Yposition Zposition Zrotation Yrotation Xrotation
		JOINT LeftLeg
		{
			OFFSET 0.000000 0.000000 -38.200329
			CHANNELS 6 Xposition Yposition Zposition Zrotation Yrotation Xrotation
			JOINT LeftFoot
			{
				OFFSET 0.000000 0.000000 -39.900856
				CHANNELS 6 Xposition Yposition Zposition Zrotation Yrotation Xrotation
				JOINT LeftToeBase
				{
					OFFSET 0.000000 -15.261658 0.000001
					CHANNELS 6 Xposition Yposition Zposition Zrotation Yrotation Xrotation
					JOINT LeftToeBaseEnd
					{
						OFFSET 0.000000 -7.539978 0.000000
						CHANNELS 6 Xposition Yposition Zposition Zrotation Yrotation Xrotation
						End Site
						{
							OFFSET 0.000000 0.000000 0.100000
						}
					}
				}
				JOINT LeftLegEnd
				{
					OFFSET 0.000000 0.000000 0.000000
					CHANNELS 6 Xposition Yposition Zposition Zrotation Yrotation Xrotation
					End Site
					{
						OFFSET 0.000000 0.000000 0.100000
					}
				}
			}
			JOINT LeftUpLegEnd
			{
				OFFSET 0.000000 0.000000 0.000000
				CHANNELS 6 Xposition Yposition Zposition Zrotation Yrotation Xrotation
				End Site
				{
					OFFSET 0.000000 0.000000 0.099998
				}
			}
		}
	}
}
MOTION
Frames: 2
Frame Time: 0.016667
5.946442 -16.088928 89.321716 -15.230084 6.575421 -8.321055 -0.000013 2.080061 8.814257 -0.703388 -3.330466 5.528855 -0.000003 -0.000005 8.844140 -0.689281 -0.515306 0.292019 -0.000012 -0.000024 11.682282 -3.170834 -1.628467 5.920412 -0.000013 0.000012 11.746704 -0.931181 -1.256070 3.939340 0.000002 -0.000027 17.658295 11.035748 7.458930 4.638953 -0.000008 -0.000010 5.101510 9.663249 -0.750522 -4.295427 -0.000006 0.000027 5.101561 -0.910344 3.429524 -18.541950 -0.000001 0.000000 11.655058 -0.000000 -0.000000 0.000000 -2.625420 -0.000018 11.175207 10.605158 -92.681193 0.213641 0.000000 -0.000013 10.434784 -43.125661 -45.899080 41.598932 -0.000011 -0.000023 29.628414 19.584850 0.657362 42.416800 0.000004 -0.000134 22.857613 22.286445 10.842898 7.747406 -2.867287 -2.944305 3.959511 31.715939 -16.574084 52.574172 0.000000 0.000015 3.350437 -11.148168 7.773154 -20.314545 -0.000042 0.000004 3.756531 -7.443104 5.826088 -13.926023 0.000001 -0.000005 3.147336 0.000000 -0.000000 0.000000 -0.086758 -2.345249 10.030918 -9.881399 -6.658182 13.115519 0.000002 -0.000024 4.061103 0.455781 -5.990677 0.845033 -0.000012 -0.000020 3.248869 -0.044220 -5.990684 0.845057 0.000001 -0.000006 2.639712 0.000001 0.000000 -0.000000 0.104099 -0.006781 9.502937 -5.053409 -8.213736 10.354224 0.000012 0.000015 4.568732 0.481946 -6.266947 0.329728 -0.000004 0.000014 3.655000 -0.018047 -6.266495 0.329708 0.000000 -0.000007 2.741269 -0.000000 -0.000001 -0.000002 0.086742 2.267436 8.921738 182.467138 -167.707577 -173.137154 0.000006 0.000021 4.061114 -0.962768 -8.314636 -0.512163 -0.000013 0.000007 3.654989 0.037202 -8.314721 -0.512118 -0.000002 0.000001 2.741251 -0.000000 -0.000000 -0.000001 -0.173500 4.467211 7.976995 -169.041909 -166.044084 180.722803 -0.000008 0.000014 3.350410 -1.849307 -9.371074 -1.838271 -0.000005 -0.000002 2.842762 0.150679 -9.371073 -1.838301 -0.000005 -0.000009 2.639717 -0.000000 0.000001 -0.000002 0.000007 0.000036 -0.000009 0.000001 -0.000002 -0.000003 0.000009 0.000017 -0.000000 -0.000001 0.000003 0.000002 2.625397 0.000012 11.175216 -7.493621 90.347673 -3.245871 0.000008 0.000027 10.813625 -16.445014 69.654658 -28.398282 0.000012 -0.000072 28.724731 4.113605 -1.144229 34.689899 0.644348 0.328829 25.716099 2.309549 -49.884174 -7.482931 2.867310 -2.944275 3.959572 -33.202895 11.604847 61.041182 -0.000007 -0.000026 3.350410 0.590012 -0.577989 -1.180902 -0.000012 -0.000008 3.756524 0.408474 -0.402591 -0.821337 -0.000022 0.000079 3.100015 -0.000003 0.000001 -0.000000 0.086770 -2.345261 10.030884 -16.005667 -30.659804 28.153727 0.000001 -0.000020 4.061095 0.585938 0.000007 0.000151 0.000010 -0.000070 3.248878 0.080738 -0.000000 -0.002528 0.000001 -0.000071 2.639709 0.000000 -0.000001 -0.000005 -0.104085 -0.006779 9.502930 -190.243650 210.968957 -161.090640 0.000007 -0.000017 4.568717 0.558617 -0.000207 0.000304 -0.000045 -0.000026 3.654988 0.003692 -0.000004 0.000712 0.000038 -0.000001 2.741217 0.000000 0.000001 0.000003 -0.086758 2.267459 8.921719 -180.251807 208.245692 -173.836948 0.000000 -0.000023 4.061100 -1.043939 0.000074 0.000069 -0.000004 -0.000015 3.654988 -0.049342 0.000000 -0.000376 0.000003 -0.000009 2.741226 0.000000 -0.000001 -0.000002 0.173485 4.467203 7.976990 -170.113265 201.604208 -184.981644 -0.000040 -0.000038 3.350400 -2.026225 0.000004 -0.000112 -0.000004 -0.000086 2.842770 -0.022096 -0.000001 0.001496 -0.000031 -0.000063 2.639721 0.000000 -0.000000 -0.000003 0.000004 0.000013 -0.000002 -0.000001 0.000001 0.000001 0.000025 0.000015 -0.000004 -0.000001 -0.000001 -0.000002 -11.289928 0.000001 0.000004 -16.424213 0.371297 0.255389 -0.000006 -0.000017 -38.200325 -0.517401 0.065365 7.724326 -0.000002 0.000001 -39.900856 -17.147045 2.797191 38.968056 -0.000014 -15.261603 0.000016 -0.968805 1.809857 -25.631258 -0.000014 -7.370734 0.000001 0.000001 0.000000 0.000000 -0.000004 -0.000011 -0.000001 0.000002 0.000003 -0.000002 -0.000013 0.000014 -0.000001 -0.000002 0.000000 -0.000000 11.315676 -0.000012 0.000008 -6.271712 -2.365263 6.368558 0.000000 -0.000011 -38.200344 -0.071786 0.022421 17.346438 -0.000010 0.000005 -39.900845 12.460864 -3.327959 11.753864 -0.000010 -15.261719 -0.000001 -0.022219 -0.367798 -20.921214 -0.000027 -7.539924 0.000001 0.000001 -0.000000 0.000000 -0.000028 0.000065 -0.000000 -0.000001 0.000001 0.000002 0.000005 -0.000015 0.000001 0.000003 0.000000 0.000001 
6.031464 -15.870789 89.226334 -15.388698 6.170135 -8.424019 -0.000000 2.080076 8.814259 -0.718971 -3.089787 5.580579 -0.000009 -0.000023 8.844141 -0.625269 -0.359308 0.286386 0.000009 -0.000009 11.682274 -3.179913 -1.556579 6.027951 0.000008 0.000001 11.746721 -0.948168 -1.223849 3.941677 -0.000008 0.000022 17.658264 11.131115 7.954974 4.536488 -0.000012 0.000078 5.101542 9.556738 -0.687049 -4.378672 -0.000013 0.000023 5.101549 -0.951772 3.474964 -18.390322 -0.000034 0.000001 11.655128 -0.000000 0.000000 0.000001 -2.625412 -0.000015 11.175223 10.879997 -92.858607 0.221064 -0.000015 -0.000010 10.434738 -42.979703 -45.891450 42.696383 -0.000004 0.000023 29.628469 19.425493 0.526777 38.124313 0.000004 -0.000037 22.857597 21.689435 9.989888 6.497823 -2.867283 -2.944336 3.959503 31.770727 -16.230925 53.109861 -0.000046 0.000019 3.350372 -10.395004 7.419836 -19.035380 0.000004 0.000011 3.756519 -6.951664 5.526322 -13.058271 0.000002 -0.000003 3.147362 0.000001 -0.000002 0.000001 -0.086754 -2.345276 10.030930 -9.311451 -3.747092 13.360998 0.000000 -0.000024 4.061133 0.480457 -3.987891 0.561381 0.000013 0.000009 3.248893 -0.019543 -3.987879 0.561380 -0.000022 -0.000016 2.639711 0.000001 -0.000000 -0.000003 0.104086 -0.006790 9.502960 -4.509278 -5.302194 10.545998 0.000000 -0.000010 4.568733 0.491879 -4.210970 0.221115 0.000007 0.000028 3.655016 -0.008152 -4.211540 0.221164 -0.000003 -0.000009 2.741264 -0.000000 0.000001 -0.000004 0.086765 2.267420 8.921726 182.993732 -170.846377 -172.760278 -0.000005 -0.000027 4.061097 -0.980222 -6.072917 -0.372852 -0.000006 -0.000007 3.654984 0.019762 -6.072973 -0.372774 -0.000001 0.000007 2.741260 -0.000000 0.000001 0.000000 -0.173496 4.467253 7.976979 -168.613902 -169.186190 181.335771 -0.000002 -0.000021 3.350405 -1.912934 -7.140762 -1.395397 0.000010 -0.000018 2.842767 0.087084 -7.140754 -1.395394 0.000002 0.000007 2.639712 -0.000000 0.000001 -0.000003 0.000005 -0.000009 -0.000009 0.000000 -0.000001 -0.000001 -0.000029 0.000001 0.000005 -0.000000 0.000002 -0.000001 2.625399 0.000024 11.175239 -7.671881 90.331970 -3.322607 0.000000 0.000011 10.813614 -17.436244 69.594239 -28.936335 0.000007 -0.000053 28.724722 4.916038 -1.361182 34.397796 0.644337 0.328866 25.716167 2.064995 -49.483208 -9.066134 2.867340 -2.944260 3.959618 -33.272833 11.458636 61.321705 0.000009 0.000028 3.350411 0.293527 -0.290505 -0.590524 -0.000012 0.000018 3.756515 0.203503 -0.202061 -0.409918 -0.000001 0.000004 3.100012 -0.000001 0.000002 0.000000 0.086761 -2.345299 10.030899 -16.242422 -31.374382 28.790490 0.000005 -0.000006 4.061116 0.588645 -0.039447 -0.000243 -0.000003 -0.000017 3.248872 0.083259 0.021989 -0.002558 -0.000005 0.000005 2.639717 0.000000 0.000001 -0.000000 -0.104086 -0.006798 9.502914 -190.455945 211.706986 -160.622827 -0.000008 -0.000025 4.568718 0.560581 -0.000185 0.000309 -0.000033 -0.000004 3.654975 0.004328 -0.000004 0.000732 0.000003 -0.000015 2.741227 -0.000001 0.000000 -0.000000 -0.086758 2.267417 8.921715 -180.384599 209.000264 -173.588438 -0.000031 0.000012 4.061093 -1.045750 0.062612 -0.001071 -0.000009 -0.000025 3.654979 -0.051912 -0.032949 -0.000381 0.000004 -0.000006 2.741235 0.000000 -0.000001 0.000000 0.173492 4.467197 7.976997 -170.174068 202.248281 -184.892524 -0.000029 -0.000079 3.350401 -2.028349 0.000001 -0.000122 -0.000021 -0.000064 2.842773 -0.023877 -0.000000 0.001604 -0.000032 -0.000063 2.639721 0.000000 0.000000 0.000002 0.000002 0.000013 0.000007 -0.000001 0.000000 0.000002 0.000032 0.000015 -0.000026 -0.000001 -0.000002 -0.000000 -11.289949 -0.000010 0.000001 -16.560591 0.609450 0.203734 -0.000004 0.000074 -38.200336 -0.493547 0.066532 7.591550 -0.000008 0.000036 -39.900871 -17.873287 2.802942 38.270462 -0.000005 -15.261621 0.000018 -0.880704 1.811424 -25.015242 -0.000002 -7.370738 0.000001 0.000002 0.000000 0.000000 0.000011 -0.000002 0.000003 0.000000 0.000001 0.000001 -0.000007 -0.000010 -0.000001 0.000002 0.000000 -0.000000 11.315686 -0.000013 0.000005 -6.712701 -1.774817 6.414799 0.000018 0.000011 -38.200321 -0.102263 0.031583 17.164983 -0.000038 -0.000066 -39.900852 13.100335 -3.427415 11.639112 0.000009 -15.261740 0.000002 0.027811 -0.362908 -21.121493 -0.000029 -7.539983 -0.000002 0.000001 0.000001 -0.000000 -0.000026 0.000059 -0.000002 0.000001 0.000000 0.000002 -0.000012 -0.000006 -0.000002 0.000001 -0.000000 -0.000001 
